<?xml version="1.0" encoding="UTF-8" standalone="no"?>
<svg
   xmlns:dc="http://purl.org/dc/elements/1.1/"
   xmlns:cc="http://creativecommons.org/ns#"
   xmlns:rdf="http://www.w3.org/1999/02/22-rdf-syntax-ns#"
   xmlns:svg="http://www.w3.org/2000/svg"
   xmlns="http://www.w3.org/2000/svg"
   xmlns:sodipodi="http://sodipodi.sourceforge.net/DTD/sodipodi-0.dtd"
   xmlns:inkscape="http://www.inkscape.org/namespaces/inkscape"
   width="38.837719mm"
   height="87.844948mm"
   version="1.1"
   viewBox="0 0 38.837718 87.844947"
   id="svg16"
   sodipodi:docname="profile.svg"
   inkscape:version="1.0.2 (e86c870879, 2021-01-15)">
  <defs
     id="defs20" />
  <sodipodi:namedview
     pagecolor="#ffffff"
     bordercolor="#666666"
     borderopacity="1"
     objecttolerance="10"
     gridtolerance="10"
     guidetolerance="10"
     inkscape:pageopacity="0"
     inkscape:pageshadow="2"
     inkscape:window-width="2560"
     inkscape:window-height="1357"
     id="namedview18"
     showgrid="false"
     fit-margin-top="0"
     fit-margin-left="0"
     fit-margin-right="0"
     fit-margin-bottom="0"
     inkscape:zoom="2.1535082"
     inkscape:cx="93.04652"
     inkscape:cy="166.01636"
     inkscape:window-x="0"
     inkscape:window-y="0"
     inkscape:window-maximized="1"
     inkscape:current-layer="g14" />
  <metadata
     id="metadata10">
    <rdf:RDF>
      <cc:Work
         rdf:about="">
        <dc:format>image/svg+xml</dc:format>
        <dc:type
           rdf:resource="http://purl.org/dc/dcmitype/StillImage" />
        <dc:title></dc:title>
      </cc:Work>
    </rdf:RDF>
  </metadata>
  <g
     transform="translate(-56.030442,-81.246839)"
     id="g14">
    <path
       transform="scale(0.26458)"
       d="m 213.3,307.08 c -2.1536,-0.0804 -2.3416,3.1491 1.4629,10.723 6.9799,13.895 15.42938,27.78302 13.57003,46.83599 -2.01502,20.64821 -8.51462,29.24872 -7.42723,49.16601 1.01529,18.59674 14.25082,36.40154 12.59913,60.04911 -2.35976,33.78506 -8.32054,26.81438 -6.88353,52.21249 2.25508,39.85702 29.0132,48.3764 27.6962,61.1874 -1.7057,16.597 -14.408,34.973 -6.9883,47.717 3.6801,6.3204 9.9695,5.0279 12.543,-1.5059 3.8907,-9.8781 8.27901,-22.82224 17.322,-21.346 35.40175,5.77922 35.97013,14.49865 81.36713,14.58765 v -13.629 c -63.977,0.81838 -112.05964,-58.49052 -115.45158,-75.7428 -4.7358,-24.08755 4.75425,-41.15905 5.96945,-62.75905 1.2352,-21.956 -19.0498,-55.6705 -14.7115,-74.0195 6.1328,-25.941 5.76877,-37.39507 3.56407,-51.97707 -1.77818,-9.81777 -8.81228,-25.1073 -15.72957,-34.26693 -3.5657,-4.5125 -6.9963,-7.1614 -8.8965,-7.2324 z"
       fill="#ececec"
       id="path12"
       sodipodi:nodetypes="ccssssccssccssccccc" />
  </g>
</svg>
